<svg width="87" height="28" viewBox="0 0 87 28" fill="none" xmlns="http://www.w3.org/2000/svg">
<path d="M0.00972956 1.00338C-0.0662496 0.54039 0.313646 0.0773926 0.769521 0.0773926H6.316C6.84786 0.0773926 7.30373 0.463225 7.30373 1.00338L8.89929 14.3531C8.97527 14.816 9.05125 14.816 9.12723 14.3531L10.8748 1.00338C10.9507 0.54039 11.4066 0.0773926 11.8625 0.0773926H15.9654C16.4972 0.0773926 16.9531 0.463225 16.9531 1.00338L18.7006 14.3531C18.7766 14.816 18.8526 14.816 18.9285 14.3531L20.4481 1.00338C20.5241 0.54039 20.98 0.0773926 21.4359 0.0773926H26.9823C27.5142 0.0773926 27.8181 0.463225 27.7421 1.00338L23.8672 26.1594C23.7912 26.6224 23.3353 27.0854 22.8035 27.0854H16.6492C16.1173 27.0854 15.6614 26.6996 15.6614 26.1594L13.9139 12.8869C13.8379 12.4239 13.762 12.4239 13.686 12.8869L11.8625 26.1594C11.7865 26.6224 11.3306 27.0854 10.7988 27.0854H4.72044C4.18858 27.0854 3.73271 26.6996 3.65673 26.1594L0.00972956 1.00338Z" fill="white"/>
<path d="M30.7813 1.00338C30.7813 0.463225 31.1612 0.0773926 31.693 0.0773926H37.4675C37.9993 0.0773926 38.3792 0.463225 38.3792 1.00338V26.1594C38.3792 26.6996 37.9993 27.0854 37.4675 27.0854H31.693C31.1612 27.0854 30.7813 26.6996 30.7813 26.1594V1.00338Z" fill="white"/>
<path d="M62.2367 26.1592C62.2367 26.6994 61.8568 27.0852 61.325 27.0852H55.1706C54.6388 27.0852 54.1829 26.6994 54.0309 26.2364L49.3962 11.2662C49.2443 10.8032 49.1683 10.8032 49.1683 11.3434L49.6242 26.1592C49.6242 26.6994 49.2443 27.0852 48.7124 27.0852H43.3939C42.862 27.0852 42.4821 26.6994 42.4821 26.1592V1.00316C42.4821 0.462997 42.862 0.0771646 43.3939 0.0771646H50.232C50.7638 0.0771646 51.2197 0.462999 51.3717 0.925994L55.3226 14.1985C55.4746 14.6615 55.5505 14.6615 55.5505 14.1213L55.0947 0.925994C55.0947 0.385833 55.4746 0 55.9304 0H61.249C61.7808 0 62.1607 0.385833 62.1607 0.925994V26.1592H62.2367Z" fill="white"/>
<path d="M73.2537 9.80029C73.2537 10.3404 73.4057 10.3404 73.6336 9.87745L77.2806 0.926221C77.5086 0.463226 78.0404 0.0773926 78.4963 0.0773926H85.7903C86.3222 0.0773926 86.4741 0.463222 86.2462 0.849051L79.9399 12.3468C79.712 12.8097 79.712 13.5042 79.9399 13.9672L86.5501 26.2366C86.7781 26.6996 86.5501 27.0083 86.0942 27.0083H78.6483C78.1164 27.0083 77.5846 26.6224 77.4326 26.1594L73.6336 16.9767C73.4057 16.5137 73.2537 16.5137 73.2537 17.0539V26.0823C73.2537 26.6224 72.8738 27.0083 72.342 27.0083H66.5676C66.0357 27.0083 65.6558 26.6224 65.6558 26.0823V1.00339C65.6558 0.463225 66.0357 0.0773926 66.5676 0.0773926H72.342C72.8738 0.0773926 73.2537 0.463225 73.2537 1.00339V9.80029Z" fill="white"/>
</svg>
